<svg width="26" height="26" viewBox="0 0 26 26" fill="none" xmlns="http://www.w3.org/2000/svg">
<path d="M9.602 0.486993C9.812 0.430993 10.02 0.380993 10.226 0.336993C11.3251 0.108445 12.4487 0.0200749 13.57 0.0739926C14.035 0.100993 14.454 0.137993 14.81 0.201993C14.992 0.228993 15.156 0.255993 15.302 0.283993C15.448 0.310993 15.585 0.347993 15.712 0.365993C15.831 0.392993 15.94 0.420993 16.032 0.447993C16.122 0.474993 16.204 0.492993 16.259 0.511993L16.451 0.565993C16.451 0.565993 16.388 0.546993 16.26 0.519993C16.182 0.497627 16.1029 0.47927 16.023 0.464993C15.932 0.446993 15.823 0.419993 15.704 0.400993C15.221 0.300993 14.492 0.190993 13.562 0.163993C12.5313 0.135671 11.501 0.231018 10.493 0.447993C11.153 0.484993 12.014 0.660993 12.896 1.20399C13.07 1.32199 13.234 1.46799 13.416 1.57699C13.881 1.86899 14.373 2.10599 14.893 2.29699C15.623 2.56199 16.397 2.71699 17.172 2.76199C17.436 2.77199 17.71 2.77199 17.974 2.76199C18.174 2.75299 18.366 2.74399 18.566 2.71699C18.703 2.69799 18.831 2.65299 18.968 2.63499C19.305 2.60699 19.551 2.77099 19.66 3.08099C19.66 3.08099 19.77 3.38199 19.46 3.69199L19.296 3.78299C19.296 3.78299 17.773 4.36699 15.941 6.07999C15.941 6.07999 14.82 7.22899 14.273 8.06799C14.273 8.06799 13.233 9.53499 12.723 11.203C12.723 11.203 10.173 18.963 16.792 24.961C18.2654 24.5214 19.6435 23.8098 20.855 22.863C21.5495 22.3269 22.1851 21.7185 22.751 21.048C22.887 20.894 23.015 20.72 23.151 20.556L23.252 20.429L23.298 20.365L23.343 20.301C23.398 20.219 23.462 20.128 23.516 20.046C23.762 19.718 23.954 19.362 24.164 19.025C24.546 18.332 24.847 17.639 25.094 16.965C25.148 16.791 25.203 16.627 25.257 16.455L25.339 16.208C25.358 16.126 25.385 16.044 25.403 15.962C25.449 15.798 25.485 15.634 25.522 15.47C25.549 15.306 25.586 15.141 25.613 14.987C25.8096 13.8891 25.8587 12.7699 25.759 11.659C25.686 10.739 25.513 10.019 25.403 9.53499C25.257 9.03399 25.185 8.77899 25.185 8.77899L25.422 9.50799C25.449 9.62599 25.485 9.76299 25.522 9.90899C25.558 10.055 25.604 10.219 25.64 10.401C25.677 10.574 25.713 10.766 25.75 10.976C25.777 11.186 25.804 11.404 25.84 11.632C25.941 12.562 25.968 13.702 25.768 14.987L25.686 15.479L25.576 15.98L25.522 16.235C25.494 16.317 25.476 16.409 25.449 16.491C25.394 16.664 25.349 16.837 25.294 17.011C25.0487 17.7396 24.7437 18.4466 24.382 19.125C24.182 19.471 23.982 19.836 23.735 20.173C23.68 20.265 23.617 20.347 23.562 20.438L23.516 20.511L23.471 20.574L23.38 20.702C23.252 20.866 23.124 21.039 22.988 21.203C22.4169 21.8968 21.7751 22.5292 21.073 23.09C20.3302 23.6812 19.5267 24.1917 18.676 24.613C16.8484 25.4919 14.8418 25.9349 12.814 25.907C11.7615 25.8913 10.7148 25.7476 9.697 25.479C8.667 25.214 7.673 24.795 6.725 24.275C6.488 24.148 6.26 24.002 6.032 23.865C5.914 23.792 5.804 23.71 5.695 23.637C5.585 23.555 5.476 23.492 5.358 23.4L5.038 23.154L4.884 23.036L4.729 22.908L4.419 22.644L4.118 22.37C3.72426 22.0005 3.35293 21.6078 3.006 21.194C2.669 20.775 2.34 20.347 2.058 19.882C1.76964 19.4281 1.51077 18.9561 1.283 18.469L1.119 18.104C1.092 18.04 1.064 17.986 1.037 17.922L0.964001 17.739L0.818001 17.366L0.690001 16.992C0.362021 15.9906 0.157181 14.9529 0.0800012 13.902C-0.00199876 12.862 0.0520013 11.832 0.216001 10.83C0.532313 8.90812 1.28379 7.08398 2.413 5.49699C2.93167 4.76342 3.52446 4.08518 4.182 3.47299C4.79569 2.90392 5.46429 2.39711 6.178 1.95999C6.862 1.53999 7.555 1.19399 8.238 0.929993C8.488 0.832993 8.736 0.746993 8.98 0.667993L9.268 0.564993C9.377 0.528993 9.485 0.504993 9.602 0.486993V0.486993ZM3.416 21.046C3.588 21.244 3.766 21.441 3.949 21.632C3.174 13.121 9.815 8.66999 10.323 8.34199C9.871 8.56199 2.479 12.308 3.416 21.039V21.046V21.046ZM11.33 5.94399C11.4888 5.67234 11.5356 5.34955 11.4605 5.04399C11.3854 4.73843 11.1944 4.47409 10.9278 4.30694C10.6612 4.13979 10.34 4.08296 10.0323 4.14849C9.72453 4.21401 9.45437 4.39675 9.279 4.65799C9.12383 4.92938 9.07962 5.25025 9.15562 5.55349C9.23161 5.85672 9.42193 6.11882 9.68675 6.28494C9.95157 6.45107 10.2704 6.50835 10.5765 6.4448C10.8825 6.38126 11.1522 6.2018 11.329 5.94399H11.33Z" fill="#071EB3"/>
</svg>
